HIERARCHY
ROOT Hips
{
  OFFSET -4.35178 90.3298 111.633
  CHANNELS 6 Xposition Yposition Zposition Zrotation Xrotation Yrotation
  JOINT LeftUpLeg
  {
    OFFSET 0.103456 1.85784 10.5485
    CHANNELS 6 Xposition Yposition Zposition Zrotation Xrotation Yrotation
    JOINT LeftLeg
    {
      OFFSET 43.5 -4.2e-05 0
      CHANNELS 6 Xposition Yposition Zposition Zrotation Xrotation Yrotation
      JOINT LeftFoot
      {
        OFFSET 42.3722 1.9e-05 0
        CHANNELS 6 Xposition Yposition Zposition Zrotation Xrotation Yrotation
        JOINT LeftToe
        {
          OFFSET 17.3 0 0
          CHANNELS 6 Xposition Yposition Zposition Zrotation Xrotation Yrotation
          End Site
          {
            OFFSET 0 0 0
          }
        }
      }
    }
  }
  JOINT RightUpLeg
  {
    OFFSET 0.103456 1.85782 -10.5485
    CHANNELS 6 Xposition Yposition Zposition Zrotation Xrotation Yrotation
    JOINT RightLeg
    {
      OFFSET 43.5 -2.7e-05 0
      CHANNELS 6 Xposition Yposition Zposition Zrotation Xrotation Yrotation
      JOINT RightFoot
      {
        OFFSET 42.3723 0 0
        CHANNELS 6 Xposition Yposition Zposition Zrotation Xrotation Yrotation
        JOINT RightToe
        {
          OFFSET 17.3 0 1.7e-05
          CHANNELS 6 Xposition Yposition Zposition Zrotation Xrotation Yrotation
          End Site
          {
            OFFSET 0 0 0
          }
        }
      }
    }
  }
  JOINT Spine
  {
    OFFSET 6.90197 -2.60373 0
    CHANNELS 6 Xposition Yposition Zposition Zrotation Xrotation Yrotation
    JOINT Spine1
    {
      OFFSET 12.5881 0 0
      CHANNELS 6 Xposition Yposition Zposition Zrotation Xrotation Yrotation
      JOINT Spine2
      {
        OFFSET 12.3432 -1.8e-05 0
        CHANNELS 6 Xposition Yposition Zposition Zrotation Xrotation Yrotation
        JOINT Neck
        {
          OFFSET 25.8329 2.3e-05 0
          CHANNELS 6 Xposition Yposition Zposition Zrotation Xrotation Yrotation
          JOINT Head
          {
            OFFSET 11.7666 0 0
            CHANNELS 6 Xposition Yposition Zposition Zrotation Xrotation Yrotation
            End Site
            {
              OFFSET 0 0 0
            }
          }
        }
        JOINT LeftShoulder
        {
          OFFSET 19.7459 -1.48035 6.0001
          CHANNELS 6 Xposition Yposition Zposition Zrotation Xrotation Yrotation
          JOINT LeftArm
          {
            OFFSET 11.2841 1.8e-05 -2e-05
            CHANNELS 6 Xposition Yposition Zposition Zrotation Xrotation Yrotation
            JOINT LeftForeArm
            {
              OFFSET 33 -1.3e-05 1.9e-05
              CHANNELS 6 Xposition Yposition Zposition Zrotation Xrotation Yrotation
              JOINT LeftHand
              {
                OFFSET 25.2 3.2e-05 1.1e-05
                CHANNELS 6 Xposition Yposition Zposition Zrotation Xrotation Yrotation
                End Site
                {
                  OFFSET 0 0 0
                }
              }
            }
          }
        }
        JOINT RightShoulder
        {
          OFFSET 19.7461 -1.48036 -6.00008
          CHANNELS 6 Xposition Yposition Zposition Zrotation Xrotation Yrotation
          JOINT RightArm
          {
            OFFSET 11.2841 0 0
            CHANNELS 6 Xposition Yposition Zposition Zrotation Xrotation Yrotation
            JOINT RightForeArm
            {
              OFFSET 33.0001 1.6e-05 0
              CHANNELS 6 Xposition Yposition Zposition Zrotation Xrotation Yrotation
              JOINT RightHand
              {
                OFFSET 25.1998 0.000123 0.000432
                CHANNELS 6 Xposition Yposition Zposition Zrotation Xrotation Yrotation
                End Site
                {
                  OFFSET 0 0 0
                }
              }
            }
          }
        }
      }
    }
  }
}
MOTION
Frames:	9
Frame Time:	0.0333333
16.2695 91.9543 -4.22201 29.058 83.5944 63.1786 0.103456 1.85784 10.5485 9.95204 5.50331 -179.772 43.5 -4.2e-05 1e-05 -5.00825 -9.51521 -1.81256 42.3722 1.9e-05 3.55271e-15 73.1064 -5.85013 4.58052 17.3 2.66454e-15 3e-06 21.4546 -1e-06 0.003093 0.103456 1.85782 -10.5485 2.1092 -13.4751 172.436 43.5 -2.7e-05 4e-06 -17.225 11.4866 2.49399 42.3723 0 1e-05 80.797 7.99715 -6.93416 17.3 -6e-06 1.7e-05 21.4546 -1.9e-05 -0.003116 6.90197 -2.60373 -3e-06 7.44002 0.113809 -0.228489 12.5881 1e-05 8e-06 4.86473 0.256939 -0.448145 12.3432 -1.8e-05 -5e-06 4.54382 0.299621 -0.452053 25.8329 2.3e-05 7e-06 4.0217 -3.109 -6.02722 11.7666 -8e-06 -6e-06 -19.8601 -7.50982 9.63437 19.7459 -1.48035 6.0001 176.783 -3.01642 -91.7888 11.2841 1.8e-05 -2e-05 9.27533 -16.7014 19.2481 33 -1.3e-05 1.9e-05 -22.7508 0.893084 -18.0244 25.2 3.2e-05 1.1e-05 10.9458 30.0855 -3.16986 19.7461 -1.48036 -6.00008 179.132 7.11166 88.4577 11.2841 0 -1e-06 -1.86277 2.98912 -9.19143 33.0001 1.6e-05 -1e-06 -25.5892 -1.86161 16.5323 25.1998 0.000123 0.000432 7.34324 -14.7282 3.23283 
16.2742 91.9585 -4.138 28.3628 83.604 63.8956 0.103456 1.85784 10.5485 9.96763 5.56977 -179.722 43.5 -4.2e-05 1e-05 -5.15636 -9.46808 -1.84473 42.3722 1.9e-05 -3.55271e-15 73.1745 -5.81794 4.49988 17.3 1.77636e-15 3e-06 21.4546 -1e-06 0.003093 0.103456 1.85782 -10.5485 2.14631 -13.429 172.438 43.5 -2.7e-05 4e-06 -17.4099 11.551 2.49456 42.3723 -3.55271e-15 1e-05 80.9788 8.06678 -6.97865 17.3 -6e-06 1.7e-05 21.4546 -1.9e-05 -0.003116 6.90197 -2.60373 -3e-06 7.48718 0.0873737 -0.206614 12.5881 1e-05 8e-06 4.95945 0.208271 -0.400647 12.3432 -1.8e-05 -5e-06 4.63909 0.25543 -0.401485 25.8329 2.3e-05 7e-06 3.84638 -3.09723 -6.03758 11.7666 -8e-06 -6e-06 -19.4246 -7.45453 9.60515 19.7459 -1.48035 6.0001 176.872 -2.92906 -91.5386 11.2841 1.8e-05 -2e-05 9.34846 -16.6947 19.6612 33 -1.3e-05 1.9e-05 -22.9663 1.07989 -18.0124 25.2 3.2e-05 1.1e-05 10.8496 30.1733 -3.27262 19.7461 -1.48036 -6.00008 179.271 7.1049 88.052 11.2841 3.55271e-15 -1e-06 -1.83345 2.69701 -9.26155 33.0001 1.6e-05 -1e-06 -27.0728 -2.11397 16.8666 25.1998 0.000123 0.000432 6.98431 -14.7859 3.34141 
16.2166 91.9638 -4.01084 27.9749 83.5963 64.3075 0.103456 1.85784 10.5485 10.0694 5.56065 -179.689 43.5 -4.2e-05 1e-05 -5.18188 -9.45418 -1.85993 42.3722 1.9e-05 0 73.2749 -5.8809 4.42982 17.3 -2.66454e-15 3e-06 21.4546 -1e-06 0.003093 0.103456 1.85782 -10.5485 2.14746 -13.4048 172.439 43.5 -2.7e-05 4e-06 -17.6776 11.6167 2.49515 42.3723 0 1e-05 81.1966 8.0911 -7.01638 17.3 -6e-06 1.7e-05 21.4546 -1.9e-05 -0.003116 6.90197 -2.60373 -3e-06 7.52035 0.0620035 -0.176643 12.5881 1e-05 8e-06 5.02593 0.162646 -0.337146 12.3432 -1.8e-05 -5e-06 4.70603 0.214818 -0.33518 25.8329 2.3e-05 7e-06 3.64598 -3.2042 -6.02005 11.7666 -8e-06 -6e-06 -18.7044 -7.45565 9.45875 19.7459 -1.48035 6.0001 176.98 -2.79653 -91.2608 11.2841 1.8e-05 -2e-05 9.27171 -16.707 20.3354 33 -1.3e-05 1.9e-05 -22.7597 1.26801 -18.0354 25.2 3.2e-05 1.1e-05 10.8023 30.2324 -3.32485 19.7461 -1.48036 -6.00008 179.516 6.98378 87.6033 11.2841 0 -1e-06 -1.79902 2.60184 -9.65112 33.0001 1.6e-05 -1e-06 -28.9365 -2.29003 17.2571 25.1998 0.000123 0.000432 6.80241 -14.836 3.53863 
16.1343 91.9489 -3.86294 27.6484 83.5764 64.6417 0.103456 1.85784 10.5485 10.2378 5.44144 -179.642 43.5 -4.2e-05 1e-05 -5.10351 -9.46449 -1.84996 42.3722 1.9e-05 3.55271e-15 73.358 -6.04322 4.38454 17.3 8.88178e-16 3e-06 21.4546 -1e-06 0.003093 0.103456 1.85782 -10.5485 2.14575 -13.4339 172.46 43.5 -2.7e-05 4e-06 -17.9733 11.6764 2.50813 42.3723 0 1e-05 81.3697 8.05358 -7.05015 17.3 -6e-06 1.7e-05 21.4546 -1.9e-05 -0.003116 6.90197 -2.60373 -3e-06 7.5614 0.0537479 -0.138642 12.5881 1e-05 8e-06 5.10796 0.152538 -0.26009 12.3432 -1.8e-05 -5e-06 4.78793 0.210746 -0.257528 25.8329 2.3e-05 7e-06 3.36732 -3.33534 -5.94443 11.7666 -8e-06 -6e-06 -17.8799 -7.48637 9.23606 19.7459 -1.48035 6.0001 177.072 -2.66795 -90.8804 11.2841 1.8e-05 -2e-05 8.93807 -16.8927 21.6672 33 -1.3e-05 1.9e-05 -22.5063 1.88256 -18.2036 25.2 3.2e-05 1.1e-05 10.9877 30.5402 -3.68665 19.7461 -1.48036 -6.00008 179.914 6.74117 86.8769 11.2841 0 -1e-06 -1.46883 2.65319 -10.493 33.0001 1.6e-05 -1e-06 -31.9072 -2.41893 17.8831 25.1998 0.000123 0.000432 6.75928 -14.8346 3.80918 
16.0151 91.9348 -3.72283 27.0813 83.611 65.2174 0.103456 1.85784 10.5485 10.3311 5.34961 -179.551 43.5 -4.2e-05 1e-05 -5.09426 -9.45487 -1.8552 42.3722 1.9e-05 0 73.4591 -6.19456 4.30211 17.3 0 3e-06 21.4546 -1e-06 0.003093 0.103456 1.85782 -10.5485 2.07468 -13.4555 172.488 43.5 -2.7e-05 4e-06 -18.3772 11.7661 2.52876 42.3723 0 1e-05 81.6224 8.03427 -7.11043 17.3 -6e-06 1.7e-05 21.4546 -1.9e-05 -0.003116 6.90197 -2.60373 -3e-06 7.65611 0.0503996 -0.11025 12.5881 1e-05 8e-06 5.29735 0.151996 -0.202812 12.3432 -1.8e-05 -5e-06 4.97712 0.216612 -0.200033 25.8329 2.3e-05 7e-06 2.90649 -3.40455 -5.84103 11.7666 -8e-06 -6e-06 -17.4788 -7.52532 9.07378 19.7459 -1.48035 6.0001 177.454 -2.62688 -89.9682 11.2841 1.8e-05 -2e-05 7.97255 -16.4621 23.2634 33 -1.3e-05 1.9e-05 -23.0763 3.20928 -18.1114 25.2 3.2e-05 1.1e-05 10.6258 31.2277 -4.07073 19.7461 -1.48036 -6.00008 -179.548 6.55633 85.7546 11.2841 0 -1e-06 -1.03026 2.76749 -12.1272 33.0001 1.6e-05 -1e-06 -36.4211 -2.83751 18.7491 25.1998 0.000123 0.000432 5.97009 -14.7191 4.11264 
15.8648 91.9183 -3.56404 26.1968 83.6843 66.1303 0.103456 1.85784 10.5485 10.3729 5.28796 -179.457 43.5 -4.2e-05 1e-05 -5.14284 -9.41986 -1.86887 42.3722 1.9e-05 0 73.5504 -6.27962 4.21203 17.3 1.77636e-15 3e-06 21.4546 -1e-06 0.003093 0.103456 1.85782 -10.5485 2.01503 -13.4168 172.546 43.5 -2.7e-05 4e-06 -18.7813 11.8963 2.54935 42.3723 1.77636e-15 1e-05 81.9413 8.06398 -7.21039 17.3 -6e-06 1.7e-05 21.4546 -1.9e-05 -0.003116 6.90197 -2.60373 -3e-06 7.80307 0.0206834 -0.0845336 12.5881 1e-05 8e-06 5.59157 0.0996767 -0.146837 12.3432 -1.8e-05 -5e-06 5.27186 0.172313 -0.140508 25.8329 2.3e-05 7e-06 2.33878 -3.31937 -5.81365 11.7666 -8e-06 -6e-06 -17.5586 -7.40103 9.03474 19.7459 -1.48035 6.0001 178.119 -2.62506 -88.5647 11.2841 1.8e-05 -2e-05 6.29914 -15.2966 25.1084 33 -1.3e-05 1.9e-05 -24.102 4.75673 -17.552 25.2 3.2e-05 1.1e-05 9.4711 32.0215 -4.21201 19.7461 -1.48036 -6.00008 -178.836 6.57552 84.0898 11.2841 0 -1e-06 -1.34985 1.99759 -14.0635 33.0001 1.6e-05 -1e-06 -41.7212 -4.47111 19.6 25.1998 0.000123 0.000432 4.26899 -15.0713 4.52968 
15.6833 91.8848 -3.38978 25.2083 83.7776 67.1785 0.103456 1.85784 10.5485 10.3786 5.32876 -179.362 43.5 -4.2e-05 1e-05 -5.24937 -9.35389 -1.90023 42.3722 1.9e-05 -7.10543e-15 73.6635 -6.31794 4.08586 17.3 -1.77636e-15 3e-06 21.4546 -1e-06 0.003093 0.103456 1.85782 -10.5485 1.97746 -13.3395 172.6 43.5 -2.7e-05 4e-06 -19.1412 12.0398 2.56723 42.3723 1.77636e-15 1e-05 82.2638 8.11458 -7.30762 17.3 -6e-06 1.7e-05 21.4546 -1.9e-05 -0.003116 6.90197 -2.60373 -3e-06 7.95882 -0.0409601 -0.0727821 12.5881 1e-05 8e-06 5.90439 -0.0180834 -0.11371 12.3432 -1.8e-05 -5e-06 5.58629 0.0615856 -0.0997334 25.8329 2.3e-05 7e-06 1.85112 -3.03208 -5.93819 11.7666 -8e-06 -6e-06 -17.9015 -7.02339 9.18369 19.7459 -1.48035 6.0001 178.91 -2.45386 -86.9009 11.2841 1.8e-05 -2e-05 4.32774 -13.7309 27.239 33 -1.3e-05 1.9e-05 -25.7369 5.68146 -16.3691 25.2 3.2e-05 1.1e-05 8.17683 32.611 -4.33528 19.7461 -1.48036 -6.00008 -178.058 6.7361 82.1947 11.2841 0 -1e-06 -2.62946 0.731927 -16.4331 33.0001 1.6e-05 -1e-06 -47.0906 -6.97834 20.3104 25.1998 0.000123 0.000432 2.09952 -15.9613 5.25146 
15.4773 91.8445 -3.17434 24.4737 83.8745 68.0125 0.103456 1.85784 10.5485 10.4158 5.40111 -179.289 43.5 -4.2e-05 1e-05 -5.32406 -9.28684 -1.92109 42.3722 1.9e-05 0 73.7979 -6.35462 3.92227 17.3 8.88178e-16 3e-06 21.4546 -1e-06 0.003093 0.103456 1.85782 -10.5485 1.9682 -13.2304 172.629 43.5 -2.7e-05 4e-06 -19.467 12.1842 2.57347 42.3723 1.77636e-15 1e-05 82.6557 8.20584 -7.34945 17.3 -6e-06 1.7e-05 21.4546 -1.9e-05 -0.003116 6.90197 -2.60373 -3e-06 8.06821 -0.108976 -0.0706097 12.5881 1e-05 8e-06 6.12471 -0.150956 -0.0985138 12.3432 -1.8e-05 -5e-06 5.80853 -0.0667485 -0.0760682 25.8329 2.3e-05 7e-06 1.65526 -2.70447 -6.08517 11.7666 -8e-06 -6e-06 -18.3084 -6.55147 9.37008 19.7459 -1.48035 6.0001 179.587 -2.05507 -85.2864 11.2841 1.8e-05 -2e-05 2.55876 -12.5965 30.2152 33 -1.3e-05 1.9e-05 -27.8874 6.2652 -14.9051 25.2 3.2e-05 1.1e-05 6.82385 33.1387 -4.43 19.7461 -1.48036 -6.00008 -177.193 6.9041 80.4559 11.2841 0 -1e-06 -4.62696 -0.704586 -19.4641 33.0001 1.6e-05 -1e-06 -52.1779 -9.02821 20.4498 25.1998 0.000123 0.000432 0.243869 -16.9809 6.11565 
15.2452 91.7981 -2.90493 23.9964 83.9606 68.6281 0.103456 1.85784 10.5485 10.5099 5.45381 -179.242 43.5 -4.2e-05 1e-05 -5.3784 -9.21978 -1.93855 42.3722 1.9e-05 3.55271e-15 73.9657 -6.47835 3.75223 17.3 8.88178e-16 3e-06 21.4546 -1e-06 0.003093 0.103456 1.85782 -10.5485 1.99226 -13.0423 172.647 43.5 -2.7e-05 4e-06 -19.8088 12.3571 2.56576 42.3723 3.55271e-15 1e-05 83.1234 8.3672 -7.40549 17.3 -6e-06 1.7e-05 21.4546 -1.9e-05 -0.003116 6.90197 -2.60373 -3e-06 8.11251 -0.184462 -0.0631571 12.5881 1e-05 8e-06 6.21486 -0.299331 -0.0717776 12.3432 -1.8e-05 -5e-06 5.90083 -0.211796 -0.0400772 25.8329 2.3e-05 7e-06 1.75321 -2.51081 -6.14818 11.7666 -8e-06 -6e-06 -18.625 -6.21068 9.49562 19.7459 -1.48035 6.0001 -179.729 -1.45134 -83.7409 11.2841 1.8e-05 -2e-05 1.05759 -11.806 34.0445 33 -1.3e-05 1.9e-05 -30.5301 6.72374 -13.2237 25.2 3.2e-05 1.1e-05 4.95888 33.6584 -4.17116 19.7461 -1.48036 -6.00008 -176.3 6.83485 79.0402 11.2841 -7.10543e-15 -1e-06 -6.91276 -1.80155 -23.1562 33.0001 1.6e-05 -1e-06 -56.6942 -9.3633 19.9817 25.1998 0.000123 0.000432 -1.38347 -17.0757 6.36206 
